<svg width="354" height="96" viewBox="0 0 354 96" fill="none" xmlns="http://www.w3.org/2000/svg">
<rect y="3" width="89.7647" height="89.7647" fill="#3787FF"/>
<rect x="19.2354" y="3" width="89.7647" height="89.7647" rx="20" fill="#3787FF"/>
<path d="M56.291 49.5728H50.5048V65.0027H38.9323V43.2355H72.272C86.5998 51.1709 78.2419 61.0534 72.272 65.0027H61.5262V69.9624H74.4763C94.3148 55.6346 82.7423 43.0518 74.4763 38.5514C78.2236 35.245 78.793 31.663 78.6093 30.2854H84.9466L90.4573 37.4493H94.0392V23.6725H78.6093C77.948 17.0597 71.1699 12.8348 67.8635 11.549H25.7067V13.7533L32.3195 18.4374L33.1461 25.0502H14.9608V37.4493H18.5428L23.5024 30.2854H50.5048V38.5514H33.1461L32.3195 61.9719L25.7067 67.7581V69.9624H50.5048V77.4018L42.7898 84.5657H64.557L56.8421 77.4018L56.291 49.5728Z" fill="white"/>
<path d="M38.9323 25.0502V16.7842L65.9346 17.0597C79.1603 25.436 71.4453 34.6939 65.9346 38.2759H57.1175V30.0098H66.7612C68.9655 27.5851 67.6797 25.6931 66.7612 25.0502H38.9323Z" fill="#3787FF"/>
<path d="M125.88 41V11.2H138.44C140.413 11.2 142.093 11.5467 143.48 12.24C144.893 12.9067 145.973 13.8667 146.72 15.12C147.493 16.3467 147.88 17.84 147.88 19.6C147.88 20.96 147.507 22.24 146.76 23.44C146.04 24.6133 144.88 25.5867 143.28 26.36V23.84C144.747 24.4 145.907 25.0933 146.76 25.92C147.613 26.7467 148.213 27.6667 148.56 28.68C148.907 29.6933 149.08 30.76 149.08 31.88C149.08 34.7333 148.133 36.9733 146.24 38.6C144.373 40.2 141.773 41 138.44 41H125.88ZM131.32 36.2H139C140.413 36.2 141.533 35.8133 142.36 35.04C143.213 34.24 143.64 33.1867 143.64 31.88C143.64 30.5733 143.213 29.52 142.36 28.72C141.533 27.92 140.413 27.52 139 27.52H131.32V36.2ZM131.32 22.76H138.72C139.84 22.76 140.733 22.44 141.4 21.8C142.067 21.1333 142.4 20.28 142.4 19.24C142.4 18.2 142.067 17.3733 141.4 16.76C140.733 16.1467 139.84 15.84 138.72 15.84H131.32V22.76ZM163.416 41.48C161.176 41.48 159.216 40.9733 157.536 39.96C155.856 38.9467 154.55 37.5733 153.616 35.84C152.683 34.1067 152.216 32.1867 152.216 30.08C152.216 27.8933 152.683 25.96 153.616 24.28C154.576 22.5733 155.87 21.2267 157.496 20.24C159.15 19.2533 160.99 18.76 163.016 18.76C164.723 18.76 166.216 19.04 167.496 19.6C168.803 20.16 169.91 20.9333 170.816 21.92C171.723 22.9067 172.416 24.04 172.896 25.32C173.376 26.5733 173.616 27.9333 173.616 29.4C173.616 29.7733 173.59 30.16 173.536 30.56C173.51 30.96 173.443 31.3067 173.336 31.6H156.536V27.6H170.376L167.896 29.48C168.136 28.2533 168.07 27.16 167.696 26.2C167.35 25.24 166.763 24.48 165.936 23.92C165.136 23.36 164.163 23.08 163.016 23.08C161.923 23.08 160.95 23.36 160.096 23.92C159.243 24.4533 158.59 25.2533 158.136 26.32C157.71 27.36 157.55 28.6267 157.656 30.12C157.55 31.4533 157.723 32.64 158.176 33.68C158.656 34.6933 159.35 35.48 160.256 36.04C161.19 36.6 162.256 36.88 163.456 36.88C164.656 36.88 165.67 36.6267 166.496 36.12C167.35 35.6133 168.016 34.9333 168.496 34.08L172.736 36.16C172.31 37.2 171.643 38.12 170.736 38.92C169.83 39.72 168.75 40.3467 167.496 40.8C166.27 41.2533 164.91 41.48 163.416 41.48ZM177.588 41V19.24H182.508V24.08L182.108 23.36C182.615 21.7333 183.402 20.6 184.468 19.96C185.562 19.32 186.868 19 188.388 19H189.668V23.64H187.788C186.295 23.64 185.095 24.1067 184.188 25.04C183.282 25.9467 182.828 27.2267 182.828 28.88V41H177.588ZM192.549 41V10.72H197.789V30.56L195.789 29.96L206.029 19.24H212.549L204.509 28L212.709 41H206.709L199.589 29.72L202.709 29.08L196.149 36.12L197.789 32.92V41H192.549ZM222.235 41.48C220.715 41.48 219.395 41.2267 218.275 40.72C217.155 40.2133 216.289 39.4933 215.675 38.56C215.062 37.6 214.755 36.4933 214.755 35.24C214.755 34.04 215.022 32.9733 215.555 32.04C216.089 31.08 216.915 30.28 218.035 29.64C219.155 29 220.569 28.5467 222.275 28.28L229.395 27.12V31.12L223.275 32.16C222.235 32.3467 221.462 32.68 220.955 33.16C220.449 33.64 220.195 34.2667 220.195 35.04C220.195 35.7867 220.475 36.3867 221.035 36.84C221.622 37.2667 222.342 37.48 223.195 37.48C224.289 37.48 225.249 37.2533 226.075 36.8C226.929 36.32 227.582 35.6667 228.035 34.84C228.515 34.0133 228.755 33.1067 228.755 32.12V26.52C228.755 25.5867 228.382 24.8133 227.635 24.2C226.915 23.56 225.955 23.24 224.755 23.24C223.635 23.24 222.635 23.5467 221.755 24.16C220.902 24.7467 220.275 25.5333 219.875 26.52L215.595 24.44C216.022 23.2933 216.689 22.3067 217.595 21.48C218.529 20.6267 219.622 19.96 220.875 19.48C222.129 19 223.489 18.76 224.955 18.76C226.742 18.76 228.315 19.0933 229.675 19.76C231.035 20.4 232.089 21.3067 232.835 22.48C233.609 23.6267 233.995 24.9733 233.995 26.52V41H229.035V37.28L230.155 37.2C229.595 38.1333 228.929 38.92 228.155 39.56C227.382 40.1733 226.502 40.6533 225.515 41C224.529 41.32 223.435 41.48 222.235 41.48ZM238.838 41V10.72H244.078V23.52L243.358 22.76C243.865 21.4533 244.692 20.4667 245.838 19.8C247.012 19.1067 248.372 18.76 249.918 18.76C251.518 18.76 252.932 19.1067 254.158 19.8C255.412 20.4933 256.385 21.4667 257.078 22.72C257.772 23.9467 258.118 25.3733 258.118 27V41H252.878V28.24C252.878 27.28 252.692 26.4533 252.318 25.76C251.945 25.0667 251.425 24.5333 250.758 24.16C250.118 23.76 249.358 23.56 248.478 23.56C247.625 23.56 246.865 23.76 246.198 24.16C245.532 24.5333 245.012 25.0667 244.638 25.76C244.265 26.4533 244.078 27.28 244.078 28.24V41H238.838Z" fill="white"/>
<path d="M146.99 58.4V62.3H136.79L137.27 61.82V87H133.07V61.82L133.55 62.3H123.35V58.4H146.99ZM152.478 76.07V87H148.428V64.95H152.478V72.1L152.448 72.11C152.695 70.9967 153.058 69.9967 153.538 69.11C154.025 68.2233 154.625 67.4733 155.338 66.86C156.058 66.24 156.891 65.7667 157.838 65.44C158.785 65.1133 159.845 64.95 161.018 64.95H162.018V68.81H161.028C159.415 68.81 158.061 68.96 156.968 69.26C155.875 69.5533 154.995 70 154.328 70.6C153.668 71.2 153.195 71.9567 152.908 72.87C152.621 73.7767 152.478 74.8433 152.478 76.07ZM163.83 72.63C163.83 71.3633 164.063 70.22 164.53 69.2C164.996 68.18 165.663 67.31 166.53 66.59C167.403 65.87 168.46 65.3167 169.7 64.93C170.94 64.5433 172.33 64.35 173.87 64.35C175.503 64.35 176.966 64.57 178.26 65.01C179.553 65.4433 180.65 66.07 181.55 66.89C182.45 67.71 183.14 68.7133 183.62 69.9C184.1 71.08 184.34 72.42 184.34 73.92V87H180.29V80.96H180.32C180.146 81.6467 179.91 82.2867 179.61 82.88C179.31 83.4733 178.953 84.0167 178.54 84.51C178.126 85.0033 177.656 85.4433 177.13 85.83C176.61 86.21 176.04 86.5333 175.42 86.8C174.806 87.06 174.146 87.2567 173.44 87.39C172.733 87.53 171.99 87.6 171.21 87.6C170.003 87.6 168.906 87.44 167.92 87.12C166.933 86.8067 166.086 86.36 165.38 85.78C164.68 85.1933 164.136 84.4933 163.75 83.68C163.37 82.86 163.18 81.95 163.18 80.95C163.18 79.9433 163.376 79.0367 163.77 78.23C164.17 77.4233 164.74 76.74 165.48 76.18C166.226 75.6133 167.13 75.18 168.19 74.88C169.25 74.58 170.446 74.43 171.78 74.43H180.44V77.83H171.74C170.993 77.83 170.336 77.8933 169.77 78.02C169.203 78.1467 168.726 78.3367 168.34 78.59C167.96 78.8433 167.67 79.1567 167.47 79.53C167.276 79.9033 167.18 80.3333 167.18 80.82C167.18 81.34 167.29 81.8033 167.51 82.21C167.736 82.6167 168.066 82.9567 168.5 83.23C168.933 83.5033 169.466 83.7133 170.1 83.86C170.74 84 171.473 84.07 172.3 84.07C173.08 84.07 173.816 84.0067 174.51 83.88C175.21 83.7533 175.856 83.5733 176.45 83.34C177.043 83.1067 177.576 82.8233 178.05 82.49C178.523 82.1567 178.926 81.7833 179.26 81.37C179.593 80.95 179.846 80.4933 180.02 80C180.2 79.5067 180.29 78.9867 180.29 78.44V73.92C180.29 73.0133 180.136 72.1967 179.83 71.47C179.53 70.7433 179.1 70.1233 178.54 69.61C177.98 69.0967 177.3 68.7033 176.5 68.43C175.7 68.1567 174.8 68.02 173.8 68.02C172.78 68.02 171.896 68.13 171.15 68.35C170.41 68.57 169.796 68.88 169.31 69.28C168.83 69.68 168.47 70.1667 168.23 70.74C167.996 71.3067 167.88 71.9367 167.88 72.63H163.83ZM202.935 64.95H207.035L199.125 87H192.825L184.995 64.95H189.195L196.445 85.68H195.605L202.935 64.95ZM211.275 76.05C211.275 77.2633 211.435 78.3567 211.755 79.33C212.075 80.3033 212.532 81.1333 213.125 81.82C213.725 82.5 214.448 83.0233 215.295 83.39C216.148 83.7567 217.105 83.94 218.165 83.94C218.892 83.94 219.562 83.85 220.175 83.67C220.788 83.49 221.342 83.2233 221.835 82.87C222.335 82.51 222.775 82.0667 223.155 81.54C223.542 81.0067 223.868 80.39 224.135 79.69H228.185C227.898 80.9233 227.452 82.03 226.845 83.01C226.238 83.99 225.498 84.82 224.625 85.5C223.758 86.18 222.768 86.7 221.655 87.06C220.548 87.42 219.352 87.6 218.065 87.6C216.438 87.6 214.958 87.32 213.625 86.76C212.298 86.2 211.158 85.41 210.205 84.39C209.258 83.37 208.525 82.1433 208.005 80.71C207.485 79.2767 207.225 77.6867 207.225 75.94C207.225 74.2067 207.482 72.63 207.995 71.21C208.508 69.7833 209.235 68.5633 210.175 67.55C211.115 66.53 212.242 65.7433 213.555 65.19C214.875 64.63 216.335 64.35 217.935 64.35C219.515 64.35 220.942 64.6233 222.215 65.17C223.488 65.71 224.575 66.48 225.475 67.48C226.375 68.48 227.068 69.69 227.555 71.11C228.042 72.53 228.285 74.12 228.285 75.88C228.285 76.1333 228.278 76.3867 228.265 76.64C228.258 76.8867 228.242 77.1567 228.215 77.45H210.415V73.95H226.305L224.165 77.42C224.185 77.1933 224.198 76.96 224.205 76.72C224.218 76.48 224.225 76.24 224.225 76C224.225 74.72 224.085 73.5867 223.805 72.6C223.532 71.6067 223.128 70.77 222.595 70.09C222.062 69.41 221.405 68.8933 220.625 68.54C219.852 68.1867 218.962 68.01 217.955 68.01C216.922 68.01 215.992 68.1933 215.165 68.56C214.345 68.9267 213.645 69.4533 213.065 70.14C212.492 70.8267 212.048 71.66 211.735 72.64C211.428 73.62 211.275 74.72 211.275 75.94V76.05ZM235.017 57.4V87H230.967V57.4H235.017ZM269.607 58.4V62.3H259.407L259.887 61.82V87H255.687V61.82L256.167 62.3H245.967V58.4H269.607ZM275.095 76.07V87H271.045V64.95H275.095V72.1L275.065 72.11C275.312 70.9967 275.675 69.9967 276.155 69.11C276.642 68.2233 277.242 67.4733 277.955 66.86C278.675 66.24 279.509 65.7667 280.455 65.44C281.402 65.1133 282.462 64.95 283.635 64.95H284.635V68.81H283.645C282.032 68.81 280.679 68.96 279.585 69.26C278.492 69.5533 277.612 70 276.945 70.6C276.285 71.2 275.812 71.9567 275.525 72.87C275.239 73.7767 275.095 74.8433 275.095 76.07ZM286.447 72.63C286.447 71.3633 286.68 70.22 287.147 69.2C287.614 68.18 288.28 67.31 289.147 66.59C290.02 65.87 291.077 65.3167 292.317 64.93C293.557 64.5433 294.947 64.35 296.487 64.35C298.12 64.35 299.584 64.57 300.877 65.01C302.17 65.4433 303.267 66.07 304.167 66.89C305.067 67.71 305.757 68.7133 306.237 69.9C306.717 71.08 306.957 72.42 306.957 73.92V87H302.907V80.96H302.937C302.764 81.6467 302.527 82.2867 302.227 82.88C301.927 83.4733 301.57 84.0167 301.157 84.51C300.744 85.0033 300.274 85.4433 299.747 85.83C299.227 86.21 298.657 86.5333 298.037 86.8C297.424 87.06 296.764 87.2567 296.057 87.39C295.35 87.53 294.607 87.6 293.827 87.6C292.62 87.6 291.524 87.44 290.537 87.12C289.55 86.8067 288.704 86.36 287.997 85.78C287.297 85.1933 286.754 84.4933 286.367 83.68C285.987 82.86 285.797 81.95 285.797 80.95C285.797 79.9433 285.994 79.0367 286.387 78.23C286.787 77.4233 287.357 76.74 288.097 76.18C288.844 75.6133 289.747 75.18 290.807 74.88C291.867 74.58 293.064 74.43 294.397 74.43H303.057V77.83H294.357C293.61 77.83 292.954 77.8933 292.387 78.02C291.82 78.1467 291.344 78.3367 290.957 78.59C290.577 78.8433 290.287 79.1567 290.087 79.53C289.894 79.9033 289.797 80.3333 289.797 80.82C289.797 81.34 289.907 81.8033 290.127 82.21C290.354 82.6167 290.684 82.9567 291.117 83.23C291.55 83.5033 292.084 83.7133 292.717 83.86C293.357 84 294.09 84.07 294.917 84.07C295.697 84.07 296.434 84.0067 297.127 83.88C297.827 83.7533 298.474 83.5733 299.067 83.34C299.66 83.1067 300.194 82.8233 300.667 82.49C301.14 82.1567 301.544 81.7833 301.877 81.37C302.21 80.95 302.464 80.4933 302.637 80C302.817 79.5067 302.907 78.9867 302.907 78.44V73.92C302.907 73.0133 302.754 72.1967 302.447 71.47C302.147 70.7433 301.717 70.1233 301.157 69.61C300.597 69.0967 299.917 68.7033 299.117 68.43C298.317 68.1567 297.417 68.02 296.417 68.02C295.397 68.02 294.514 68.13 293.767 68.35C293.027 68.57 292.414 68.88 291.927 69.28C291.447 69.68 291.087 70.1667 290.847 70.74C290.614 71.3067 290.497 71.9367 290.497 72.63H286.447ZM314.119 75.07V87H310.069V64.95H314.119V71.43L314.089 71.45C314.349 70.3433 314.725 69.3533 315.219 68.48C315.719 67.6 316.319 66.8567 317.019 66.25C317.725 65.6367 318.522 65.1667 319.409 64.84C320.302 64.5133 321.265 64.35 322.299 64.35C323.559 64.35 324.685 64.5867 325.679 65.06C326.672 65.5333 327.512 66.2167 328.199 67.11C328.885 67.9967 329.412 69.08 329.779 70.36C330.145 71.6333 330.329 73.07 330.329 74.67V87H326.279V74.67C326.279 73.5633 326.162 72.5967 325.929 71.77C325.695 70.9367 325.342 70.2433 324.869 69.69C324.395 69.13 323.805 68.71 323.099 68.43C322.392 68.15 321.565 68.01 320.619 68.01C319.939 68.01 319.305 68.0833 318.719 68.23C318.139 68.37 317.605 68.5767 317.119 68.85C316.639 69.1233 316.212 69.4633 315.839 69.87C315.465 70.27 315.152 70.7333 314.899 71.26C314.645 71.78 314.452 72.36 314.319 73C314.185 73.6333 314.119 74.3233 314.119 75.07ZM342.388 64.35C343.888 64.35 345.221 64.52 346.388 64.86C347.561 65.2 348.548 65.6867 349.348 66.32C350.155 66.9467 350.765 67.71 351.178 68.61C351.598 69.5033 351.808 70.5067 351.808 71.62H347.858C347.858 71.0533 347.738 70.54 347.498 70.08C347.265 69.6133 346.915 69.2167 346.448 68.89C345.988 68.5567 345.418 68.3 344.738 68.12C344.058 67.94 343.275 67.85 342.388 67.85C341.595 67.85 340.868 67.9233 340.208 68.07C339.548 68.2167 338.981 68.4267 338.508 68.7C338.035 68.9667 337.668 69.29 337.408 69.67C337.148 70.0433 337.018 70.46 337.018 70.92C337.018 71.2667 337.091 71.57 337.238 71.83C337.385 72.09 337.585 72.32 337.838 72.52C338.091 72.7133 338.388 72.88 338.728 73.02C339.068 73.1533 339.431 73.27 339.818 73.37C340.211 73.47 340.618 73.5567 341.038 73.63C341.458 73.6967 341.871 73.7633 342.278 73.83L343.748 74.06C344.368 74.16 345.015 74.2733 345.688 74.4C346.368 74.52 347.035 74.68 347.688 74.88C348.348 75.08 348.975 75.3367 349.568 75.65C350.168 75.9567 350.691 76.3433 351.138 76.81C351.591 77.2767 351.951 77.8367 352.218 78.49C352.491 79.1433 352.628 79.9133 352.628 80.8C352.628 81.8867 352.415 82.8533 351.988 83.7C351.561 84.54 350.931 85.25 350.098 85.83C349.265 86.41 348.235 86.85 347.008 87.15C345.781 87.45 344.365 87.6 342.758 87.6C341.085 87.6 339.618 87.4367 338.358 87.11C337.098 86.7833 336.048 86.3033 335.208 85.67C334.368 85.0367 333.735 84.26 333.308 83.34C332.888 82.4133 332.678 81.35 332.678 80.15H336.628C336.628 80.7833 336.751 81.3467 336.998 81.84C337.245 82.3267 337.621 82.74 338.128 83.08C338.635 83.4133 339.271 83.6667 340.038 83.84C340.805 84.0133 341.708 84.1 342.748 84.1C343.688 84.1 344.525 84.03 345.258 83.89C345.991 83.75 346.611 83.5433 347.118 83.27C347.625 82.9967 348.011 82.6633 348.278 82.27C348.545 81.87 348.678 81.4133 348.678 80.9C348.678 80.4933 348.598 80.14 348.438 79.84C348.285 79.54 348.071 79.2767 347.798 79.05C347.531 78.8233 347.211 78.63 346.838 78.47C346.471 78.3033 346.071 78.16 345.638 78.04C345.205 77.92 344.751 77.8167 344.278 77.73C343.811 77.6433 343.338 77.5567 342.858 77.47L341.388 77.22C340.828 77.1267 340.235 77.02 339.608 76.9C338.981 76.78 338.358 76.6233 337.738 76.43C337.125 76.2367 336.535 75.9967 335.968 75.71C335.408 75.4233 334.911 75.0667 334.478 74.64C334.051 74.2067 333.708 73.6967 333.448 73.11C333.195 72.5167 333.068 71.8167 333.068 71.01C333.068 69.9967 333.281 69.08 333.708 68.26C334.141 67.44 334.758 66.74 335.558 66.16C336.365 65.58 337.341 65.1333 338.488 64.82C339.641 64.5067 340.941 64.35 342.388 64.35Z" fill="white"/>
</svg>
